<svg width="890" height="486" viewBox="0 0 890 486" fill="none" xmlns="http://www.w3.org/2000/svg">
<rect width="890" height="486" fill="black"/>
<rect x="831" y="426" width="768" height="364" transform="rotate(180 831 426)" fill="#FF00E6"/>
<path d="M54.1807 28C64.9149 28 74.0772 34.6695 77.7002 44.0615L77.7637 44L79.3174 45.542L79.3613 45.5L95.9805 62L63.2461 94L46.627 77.5L46.6357 77.4902L45.6738 76.5352C35.9532 73.0716 29 63.8428 29 53C29 39.1929 40.2738 28 54.1807 28ZM446.924 32H447V64.8213H413.531L425.849 32H425.95C426.993 21.3346 435.984 13 446.924 13V32Z" fill="#FF00E6"/>
<path d="M95.3139 62L78.354 45H421.316L414.91 62H95.3139Z" fill="#FDFDFD"/>
<path d="M46 76L63 93.4146V244H46V76Z" fill="white"/>
<path d="M54.1807 460C64.9149 460 74.0772 453.33 77.7002 443.938L77.7637 444L79.3174 442.458L79.3613 442.5L95.9805 426L63.2461 394L46.627 410.5L46.6357 410.51L45.6738 411.465C35.9532 414.928 29 424.157 29 435C29 448.807 40.2738 460 54.1807 460ZM446.924 456H447V423.179H413.531L425.849 456H425.95C426.993 466.665 435.984 475 446.924 475V456Z" fill="#FF00E6"/>
<path d="M95.3139 426L78.354 443H421.316L414.91 426H95.3139Z" fill="#FDFDFD"/>
<path d="M46 412L63 394.585V244H46V412Z" fill="white"/>
<path d="M839.819 28C829.085 28 819.923 34.6695 816.3 44.0615L816.236 44L814.683 45.542L814.639 45.5L798.02 62L830.754 94L847.373 77.5L847.364 77.4902L848.326 76.5352C858.047 73.0716 865 63.8428 865 53C865 39.1929 853.726 28 839.819 28ZM447.076 32H447V64.8213H480.469L468.151 32H468.05C467.007 21.3346 458.016 13 447.076 13V32Z" fill="#FF00E6"/>
<path d="M798.686 62L815.646 45H472.684L479.09 62H798.686Z" fill="#FDFDFD"/>
<path d="M848 76L831 93.4146V244H848V76Z" fill="white"/>
<path d="M839.819 460C829.085 460 819.923 453.33 816.3 443.938L816.236 444L814.683 442.458L814.639 442.5L798.02 426L830.754 394L847.373 410.5L847.364 410.51L848.326 411.465C858.047 414.928 865 424.157 865 435C865 448.807 853.726 460 839.819 460ZM447.076 456H447V423.179H480.469L468.151 456H468.05C467.007 466.665 458.016 475 447.076 475V456Z" fill="#FF00E6"/>
<path d="M798.686 426L815.646 443H472.684L479.09 426H798.686Z" fill="#FDFDFD"/>
<path d="M848 412L831 394.585V244H848V412Z" fill="white"/>
</svg>
